<svg width="44" height="45" viewBox="0 0 44 45" fill="none" xmlns="http://www.w3.org/2000/svg">
<rect x="0.445801" y="1.14737" width="43" height="43" rx="6.5" fill="#6363DB"/>
<rect x="0.445801" y="1.14737" width="43" height="43" rx="6.5" stroke="#4F4FB9"/>
<path d="M25.4858 30.1474L24.4458 26.7474H19.2458L18.2058 30.1474H14.9458L19.9858 15.8074H23.6858L28.7458 30.1474H25.4858ZM22.6858 20.8874C22.6191 20.6607 22.5325 20.374 22.4258 20.0274C22.3191 19.6807 22.2125 19.3274 22.1058 18.9674C21.9991 18.6074 21.9125 18.294 21.8458 18.0274C21.7791 18.294 21.6858 18.6274 21.5658 19.0274C21.4591 19.414 21.3525 19.7874 21.2458 20.1474C21.1525 20.494 21.0791 20.7407 21.0258 20.8874L20.0058 24.2074H23.7258L22.6858 20.8874Z" fill="white"/>
</svg>
